<svg width="42" height="43" viewBox="0 0 42 43" fill="none" xmlns="http://www.w3.org/2000/svg">
<g clip-path="url(#clip0_230_332)">
<path d="M20.9887 0.510996C9.39762 0.513456 0.00313168 9.91196 0.00559116 21.5031C0.00641098 25.5167 1.15819 29.4459 3.32417 32.8249L0.0588799 41.2969C-0.115005 41.7475 0.109299 42.2537 0.559876 42.4276C0.660633 42.4665 0.767621 42.4864 0.875592 42.4862C0.975775 42.4867 1.07522 42.4696 1.16942 42.4355L9.91427 39.3136C19.7532 45.4414 32.6968 42.4329 38.8245 32.5939C44.9522 22.7549 41.9438 9.81136 32.1048 3.68365C28.7696 1.60637 24.9181 0.507143 20.9887 0.510996Z" fill="#55CD6C"/>
<path d="M30.9949 25.0857C30.9949 25.0857 28.8525 24.0364 27.511 23.3368C25.9929 22.555 24.209 24.0189 23.3695 24.8514C22.0629 24.3495 20.8696 23.592 19.8593 22.6232C18.8903 21.6131 18.1328 20.4198 17.6311 19.1131C18.4636 18.2718 19.924 16.4896 19.1457 14.9715C18.4549 13.6283 17.3968 11.4876 17.3968 11.4859C17.2483 11.1912 16.9467 11.0052 16.6167 11.0049H14.8678C12.3207 11.4448 10.4688 13.6672 10.4954 16.2518C10.4954 18.9976 13.7817 24.2726 15.9977 26.4902C18.2137 28.7078 23.4885 31.9925 26.2361 31.9925C28.8207 32.019 31.0431 30.167 31.483 27.6201V25.8711C31.4832 25.5376 31.294 25.2331 30.9949 25.0857Z" fill="#FAFAFA"/>
</g>
<defs>
<clipPath id="clip0_230_332">
<rect width="42" height="42" fill="white" transform="translate(0 0.5)"/>
</clipPath>
</defs>
</svg>
